ffmpeg started on 2025-06-23 at 20:47:38
Report written to "D:\Convert\FFMetrics\reports\psnr_report-6.txt"
Log level: 32
Command line:
ffmpeg -hide_banner -nostdin -i "G:\\\xc0\xed\xe8\xec\xe5\\[\xd2\xee\xef-4]\\\xcc\xee\xe6\xe5\xf2, \xff \xe2\xf1\xf2\xf0\xe5\xf7\xf3 \xf2\xe5\xe1\xff \xe2 \xef\xee\xe4\xe7\xe5\xec\xe5\xeb\xfc\xe5\\\xd2\xc2-1\\Danmachi_[OVA]_[AniLibria_Tv]_[BDRip_720p]_HEVC.mkv" -i "G:\\\xc0\xed\xe8\xec\xe5\\[\xd2\xee\xef-4]\\\xcc\xee\xe6\xe5\xf2, \xff \xe2\xf1\xf2\xf0\xe5\xf7\xf3 \xf2\xe5\xe1\xff \xe2 \xef\xee\xe4\xe7\xe5\xec\xe5\xeb\xfc\xe5\\\xd2\xc2-1\\Danmachi_[OVA]_[AniLibria_Tv]_[BDRip_720p].mkv" -lavfi "[0:v]settb=AVTB,setpts=PTS-STARTPTS,format=pix_fmts=yuv420p10,fps=24000/1001,scale=1280:720:flags=bicubic[main];[1:v]settb=AVTB,setpts=PTS-STARTPTS,format=pix_fmts=yuv420p10,fps=24000/1001,scale=1280:720:flags=bicubic[ref];[main][ref]psnr=eof_action=endall:stats_file='D\\:/Convert/FFMetrics/logs/psnr_logfile-6.txt'" -f null -
Input #0, matroska,webm, from 'G:\Аниме\[Топ-4]\Может, я встречу тебя в подземелье\ТВ-1\Danmachi_[OVA]_[AniLibria_Tv]_[BDRip_720p]_HEVC.mkv':
  Metadata:
    title           : [NoobSubs] DanMachi OVA (720p Blu-ray 10bit AAC)
    ARTIST          : Subs: None
    TOTAL_PARTS     : 1
    track           : 1
    ENCODER         : Lavf61.7.100
  Duration: 00:24:43.28, start: -0.021000, bitrate: 712 kb/s
  Chapters:
    Chapter #0:0: start 0.000000, end 64.981577
      Metadata:
        title           : Chapter 1
    Chapter #0:1: start 64.981577, end 155.029866
      Metadata:
        title           : Chapter 2
    Chapter #0:2: start 155.029866, end 614.030066
      Metadata:
        title           : Chapter 3
    Chapter #0:3: start 614.030066, end 1383.965911
      Metadata:
        title           : Chapter 4
    Chapter #0:4: start 1383.965911, end 1482.147333
      Metadata:
        title           : Chapter 5
    Chapter #0:5: start 1482.147333, end 1483.148333
      Metadata:
        title           : Chapter 6
  Stream #0:0(jpn): Video: hevc (Main 10), yuv420p10le(tv, bt709, progressive), 1280x720 [SAR 1:1 DAR 16:9], 23.98 fps, 23.98 tbr, 1k tbn (default) (forced)
      Metadata:
        title           : [NoobsSubs]
        ENCODER         : Lavc61.19.100 libx265
        BPS             : 515432
        DURATION        : 00:24:43.231708333
        NUMBER_OF_FRAMES: 35560
        NUMBER_OF_BYTES : 95563267
        _STATISTICS_WRITING_APP: mkvpropedit v66.0.0 ('Josie') 64-bit
        _STATISTICS_WRITING_DATE_UTC: 2025-06-23 09:47:36
        _STATISTICS_TAGS: BPS DURATION NUMBER_OF_FRAMES NUMBER_OF_BYTES
  Stream #0:1(rus): Audio: aac (LC), 48000 Hz, stereo, fltp (default) (forced)
      Metadata:
        title           : LeeAnnushka & Sharon & Anzen
        ENCODER         : Lavc61.19.100 aac
        BPS             : 192648
        DURATION        : 00:24:43.263000000
        NUMBER_OF_FRAMES: 69529
        NUMBER_OF_BYTES : 35718459
        _STATISTICS_WRITING_APP: mkvpropedit v66.0.0 ('Josie') 64-bit
        _STATISTICS_WRITING_DATE_UTC: 2025-06-23 09:47:36
        _STATISTICS_TAGS: BPS DURATION NUMBER_OF_FRAMES NUMBER_OF_BYTES
  Stream #0:2(rus): Subtitle: ass (ssa) (default) (forced)
      Metadata:
        title           : Надписи
        BPS             : 14
        DURATION        : 00:21:52.390000000
        NUMBER_OF_FRAMES: 11
        NUMBER_OF_BYTES : 2356
        _STATISTICS_WRITING_APP: mkvpropedit v66.0.0 ('Josie') 64-bit
        _STATISTICS_WRITING_DATE_UTC: 2025-06-23 09:47:36
        _STATISTICS_TAGS: BPS DURATION NUMBER_OF_FRAMES NUMBER_OF_BYTES
  Stream #0:3(rus): Subtitle: ass (ssa)
      Metadata:
        title           : Полные
        BPS             : 169
        DURATION        : 00:22:55.540000000
        NUMBER_OF_FRAMES: 378
        NUMBER_OF_BYTES : 29221
        _STATISTICS_WRITING_APP: mkvpropedit v66.0.0 ('Josie') 64-bit
        _STATISTICS_WRITING_DATE_UTC: 2025-06-23 09:47:36
        _STATISTICS_TAGS: BPS DURATION NUMBER_OF_FRAMES NUMBER_OF_BYTES
Input #1, matroska,webm, from 'G:\Аниме\[Топ-4]\Может, я встречу тебя в подземелье\ТВ-1\Danmachi_[OVA]_[AniLibria_Tv]_[BDRip_720p].mkv':
  Metadata:
    encoder         : libebml v1.4.2 + libmatroska v1.6.4
    creation_time   : 2025-01-14T16:50:29.000000Z
    ARTIST          : Subs: None
    TITLE           : [NoobSubs] DanMachi OVA (720p Blu-ray 10bit AAC)
    TOTAL_PARTS     : 1
    track           : 1
  Duration: 00:24:43.26, start: 0.000000, bitrate: 1822 kb/s
  Chapters:
    Chapter #1:0: start 0.000000, end 64.981577
      Metadata:
        title           : Chapter 1
    Chapter #1:1: start 64.981577, end 155.029866
      Metadata:
        title           : Chapter 2
    Chapter #1:2: start 155.029866, end 614.030066
      Metadata:
        title           : Chapter 3
    Chapter #1:3: start 614.030066, end 1383.965911
      Metadata:
        title           : Chapter 4
    Chapter #1:4: start 1383.965911, end 1482.147333
      Metadata:
        title           : Chapter 5
    Chapter #1:5: start 1482.147333, end 1483.148333
      Metadata:
        title           : Chapter 6
  Stream #1:0(jpn): Video: h264 (High 10), yuv420p10le(progressive), 1280x720 [SAR 1:1 DAR 16:9], 23.98 fps, 23.98 tbr, 1k tbn (default) (forced)
      Metadata:
        title           : [NoobsSubs]
        BPS             : 1600886
        DURATION        : 00:24:43.233000000
        NUMBER_OF_FRAMES: 35560
        NUMBER_OF_BYTES : 296810879
        _STATISTICS_WRITING_APP: mkvmerge v66.0.0 ('Josie') 64-bit
        _STATISTICS_WRITING_DATE_UTC: 2025-01-14 16:50:29
        _STATISTICS_TAGS: BPS DURATION NUMBER_OF_FRAMES NUMBER_OF_BYTES
  Stream #1:1(rus): Audio: aac (LC), 48000 Hz, stereo, fltp (default) (forced)
      Metadata:
        title           : LeeAnnushka & Sharon & Anzen
        BPS             : 192093
        DURATION        : 00:24:43.263000000
        NUMBER_OF_FRAMES: 69528
        NUMBER_OF_BYTES : 35615608
        _STATISTICS_WRITING_APP: mkvmerge v66.0.0 ('Josie') 64-bit
        _STATISTICS_WRITING_DATE_UTC: 2025-01-14 16:50:29
        _STATISTICS_TAGS: BPS DURATION NUMBER_OF_FRAMES NUMBER_OF_BYTES
  Stream #1:2(rus): Subtitle: ass (ssa) (default) (forced)
      Metadata:
        title           : Надписи
        BPS             : 14
        DURATION        : 00:21:52.390000000
        NUMBER_OF_FRAMES: 11
        NUMBER_OF_BYTES : 2356
        _STATISTICS_WRITING_APP: mkvmerge v66.0.0 ('Josie') 64-bit
        _STATISTICS_WRITING_DATE_UTC: 2025-01-14 16:50:29
        _STATISTICS_TAGS: BPS DURATION NUMBER_OF_FRAMES NUMBER_OF_BYTES
  Stream #1:3(rus): Subtitle: ass (ssa)
      Metadata:
        title           : Полные
        BPS             : 169
        DURATION        : 00:22:55.540000000
        NUMBER_OF_FRAMES: 378
        NUMBER_OF_BYTES : 29221
        _STATISTICS_WRITING_APP: mkvmerge v66.0.0 ('Josie') 64-bit
        _STATISTICS_WRITING_DATE_UTC: 2025-01-14 16:50:29
        _STATISTICS_TAGS: BPS DURATION NUMBER_OF_FRAMES NUMBER_OF_BYTES
  Stream #1:4: Attachment: ttf
      Metadata:
        filename        : palab.ttf
        mimetype        : application/x-truetype-font
  Stream #1:5: Attachment: ttf
      Metadata:
        filename        : stylo.ttf
        mimetype        : application/x-truetype-font
  Stream #1:6: Attachment: ttf
      Metadata:
        filename        : v_CCYadaYadaYadaInt-Regular_v1.ttf
        mimetype        : application/x-truetype-font
  Stream #1:7: Attachment: ttf
      Metadata:
        filename        : 9364.ttf
        mimetype        : application/x-truetype-font
  Stream #1:8: Attachment: otf
      Metadata:
        filename        : KozMinPro-Medium.otf
        mimetype        : application/vnd.ms-opentype
Stream mapping:
  Stream #0:0 (hevc) -> settb:default
  Stream #1:0 (h264) -> settb:default
  psnr:default -> Stream #0:0 (wrapped_avframe)
  Stream #0:1 -> #0:1 (aac (native) -> pcm_s16le (native))
Output #0, null, to 'pipe:':
  Metadata:
    title           : [NoobSubs] DanMachi OVA (720p Blu-ray 10bit AAC)
    ARTIST          : Subs: None
    TOTAL_PARTS     : 1
    track           : 1
    encoder         : Lavf61.7.100
  Chapters:
    Chapter #0:0: start 0.021000, end 65.002577
      Metadata:
        title           : Chapter 1
    Chapter #0:1: start 65.002577, end 155.050866
      Metadata:
        title           : Chapter 2
    Chapter #0:2: start 155.050866, end 614.051066
      Metadata:
        title           : Chapter 3
    Chapter #0:3: start 614.051066, end 1383.986911
      Metadata:
        title           : Chapter 4
    Chapter #0:4: start 1383.986911, end 1482.168333
      Metadata:
        title           : Chapter 5
    Chapter #0:5: start 1482.168333, end 1483.169333
      Metadata:
        title           : Chapter 6
  Stream #0:0: Video: wrapped_avframe, yuv420p10le(tv, bt709, progressive), 1280x720 [SAR 1:1 DAR 16:9], q=2-31, 200 kb/s, 23.98 fps, 23.98 tbn
      Metadata:
        encoder         : Lavc61.19.100 wrapped_avframe
  Stream #0:1(rus): Audio: pcm_s16le, 48000 Hz, stereo, s16, 1536 kb/s (default) (forced)
      Metadata:
        title           : LeeAnnushka & Sharon & Anzen
        _STATISTICS_TAGS: BPS DURATION NUMBER_OF_FRAMES NUMBER_OF_BYTES
        BPS             : 192648
        DURATION        : 00:24:43.263000000
        NUMBER_OF_FRAMES: 69529
        NUMBER_OF_BYTES : 35718459
        _STATISTICS_WRITING_APP: mkvpropedit v66.0.0 ('Josie') 64-bit
        _STATISTICS_WRITING_DATE_UTC: 2025-06-23 09:47:36
        encoder         : Lavc61.19.100 pcm_s16le
frame=   46 fps=0.0 q=-0.0 size=N/A time=00:00:01.91 bitrate=N/A speed=3.67x    frame=   98 fps= 95 q=-0.0 size=N/A time=00:00:04.08 bitrate=N/A speed=3.96x    frame=  140 fps= 90 q=-0.0 size=N/A time=00:00:05.83 bitrate=N/A speed=3.75x    frame=  200 fps= 97 q=-0.0 size=N/A time=00:00:08.34 bitrate=N/A speed=4.03x    frame=  254 fps= 98 q=-0.0 size=N/A time=00:00:10.59 bitrate=N/A speed=4.11x    frame=  306 fps= 98 q=-0.0 size=N/A time=00:00:12.76 bitrate=N/A speed=4.11x    frame=  358 fps= 99 q=-0.0 size=N/A time=00:00:14.93 bitrate=N/A speed=4.13x    frame=  401 fps= 97 q=-0.0 size=N/A time=00:00:16.72 bitrate=N/A speed=4.05x    frame=  460 fps= 99 q=-0.0 size=N/A time=00:00:19.18 bitrate=N/A speed=4.12x    frame=  512 fps= 99 q=-0.0 size=N/A time=00:00:21.35 bitrate=N/A speed=4.14x    frame=  552 fps= 97 q=-0.0 size=N/A time=00:00:23.02 bitrate=N/A speed=4.06x    frame=  613 fps= 99 q=-0.0 size=N/A time=00:00:25.56 bitrate=N/A speed=4.13x    frame=  658 fps= 98 q=-0.0 size=N/A time=00:00:27.44 bitrate=N/A speed=4.09x    frame=  715 fps= 99 q=-0.0 size=N/A time=00:00:29.82 bitrate=N/A speed=4.13x    frame=  764 fps= 99 q=-0.0 size=N/A time=00:00:31.86 bitrate=N/A speed=4.12x    frame=  816 fps= 99 q=-0.0 size=N/A time=00:00:34.03 bitrate=N/A speed=4.12x    frame=  862 fps= 98 q=-0.0 size=N/A time=00:00:35.95 bitrate=N/A speed= 4.1x    frame=  918 fps= 99 q=-0.0 size=N/A time=00:00:38.28 bitrate=N/A speed=4.12x    frame=  968 fps= 99 q=-0.0 size=N/A time=00:00:40.37 bitrate=N/A speed=4.12x    frame= 1022 fps= 99 q=-0.0 size=N/A time=00:00:42.62 bitrate=N/A speed=4.13x    frame= 1070 fps= 99 q=-0.0 size=N/A time=00:00:44.62 bitrate=N/A speed=4.12x    frame= 1124 fps= 99 q=-0.0 size=N/A time=00:00:46.88 bitrate=N/A speed=4.13x    frame= 1175 fps= 99 q=-0.0 size=N/A time=00:00:49.00 bitrate=N/A speed=4.13x    frame= 1229 fps= 99 q=-0.0 size=N/A time=00:00:51.25 bitrate=N/A speed=4.14x    frame= 1280 fps= 99 q=-0.0 size=N/A time=00:00:53.38 bitrate=N/A speed=4.14x    frame= 1319 fps= 98 q=-0.0 size=N/A time=00:00:55.01 bitrate=N/A speed= 4.1x    frame= 1382 fps= 99 q=-0.0 size=N/A time=00:00:57.64 bitrate=N/A speed=4.14x    frame= 1427 fps= 99 q=-0.0 size=N/A time=00:00:59.51 bitrate=N/A speed=4.12x    frame= 1476 fps= 99 q=-0.0 size=N/A time=00:01:01.56 bitrate=N/A speed=4.12x    frame= 1536 fps= 99 q=-0.0 size=N/A time=00:01:04.06 bitrate=N/A speed=4.14x    frame= 1587 fps= 99 q=-0.0 size=N/A time=00:01:06.19 bitrate=N/A speed=4.14x    frame= 1631 fps= 99 q=-0.0 size=N/A time=00:01:08.02 bitrate=N/A speed=4.12x    frame= 1685 fps= 99 q=-0.0 size=N/A time=00:01:10.27 bitrate=N/A speed=4.13x    frame= 1740 fps= 99 q=-0.0 size=N/A time=00:01:12.57 bitrate=N/A speed=4.14x    frame= 1792 fps= 99 q=-0.0 size=N/A time=00:01:14.74 bitrate=N/A speed=4.14x    frame= 1842 fps= 99 q=-0.0 size=N/A time=00:01:16.82 bitrate=N/A speed=4.14x    frame= 1888 fps= 99 q=-0.0 size=N/A time=00:01:18.74 bitrate=N/A speed=4.12x    frame= 1945 fps= 99 q=-0.0 size=N/A time=00:01:21.12 bitrate=N/A speed=4.14x    frame= 1995 fps= 99 q=-0.0 size=N/A time=00:01:23.20 bitrate=N/A speed=4.14x    frame= 2048 fps= 99 q=-0.0 size=N/A time=00:01:25.41 bitrate=N/A speed=4.14x    frame= 2098 fps= 99 q=-0.0 size=N/A time=00:01:27.50 bitrate=N/A speed=4.14x    frame= 2142 fps= 99 q=-0.0 size=N/A time=00:01:29.33 bitrate=N/A speed=4.13x    frame= 2201 fps= 99 q=-0.0 size=N/A time=00:01:31.80 bitrate=N/A speed=4.14x    frame= 2250 fps= 99 q=-0.0 size=N/A time=00:01:33.84 bitrate=N/A speed=4.14x    frame= 2303 fps= 99 q=-0.0 size=N/A time=00:01:36.05 bitrate=N/A speed=4.14x    frame= 2343 fps= 99 q=-0.0 size=N/A time=00:01:37.72 bitrate=N/A speed=4.12x    frame= 2406 fps= 99 q=-0.0 size=N/A time=00:01:40.35 bitrate=N/A speed=4.14x    frame= 2454 fps= 99 q=-0.0 size=N/A time=00:01:42.35 bitrate=N/A speed=4.13x    frame= 2507 fps= 99 q=-0.0 size=N/A time=00:01:44.56 bitrate=N/A speed=4.14x    frame= 2559 fps= 99 q=-0.0 size=N/A time=00:01:46.73 bitrate=N/A speed=4.14x    frame= 2610 fps= 99 q=-0.0 size=N/A time=00:01:48.85 bitrate=N/A speed=4.14x    frame= 2657 fps= 99 q=-0.0 size=N/A time=00:01:50.81 bitrate=N/A speed=4.13x    frame= 2711 fps= 99 q=-0.0 size=N/A time=00:01:53.07 bitrate=N/A speed=4.14x    frame= 2764 fps= 99 q=-0.0 size=N/A time=00:01:55.28 bitrate=N/A speed=4.14x    frame= 2806 fps= 99 q=-0.0 size=N/A time=00:01:57.03 bitrate=N/A speed=4.13x    frame= 2861 fps= 99 q=-0.0 size=N/A time=00:01:59.32 bitrate=N/A speed=4.13x    frame= 2916 fps= 99 q=-0.0 size=N/A time=00:02:01.62 bitrate=N/A speed=4.14x    frame= 2968 fps= 99 q=-0.0 size=N/A time=00:02:03.79 bitrate=N/A speed=4.14x    frame= 3019 fps= 99 q=-0.0 size=N/A time=00:02:05.91 bitrate=N/A speed=4.14x    frame= 3071 fps= 99 q=-0.0 size=N/A time=00:02:08.08 bitrate=N/A speed=4.14x    frame= 3124 fps= 99 q=-0.0 size=N/A time=00:02:10.29 bitrate=N/A speed=4.14x    frame= 3172 fps= 99 q=-0.0 size=N/A time=00:02:12.29 bitrate=N/A speed=4.14x    frame= 3221 fps= 99 q=-0.0 size=N/A time=00:02:14.34 bitrate=N/A speed=4.14x    frame= 3269 fps= 99 q=-0.0 size=N/A time=00:02:16.34 bitrate=N/A speed=4.13x    frame= 3324 fps= 99 q=-0.0 size=N/A time=00:02:18.63 bitrate=N/A speed=4.14x    frame= 3365 fps= 99 q=-0.0 size=N/A time=00:02:20.34 bitrate=N/A speed=4.12x    frame= 3426 fps= 99 q=-0.0 size=N/A time=00:02:22.89 bitrate=N/A speed=4.14x    frame= 3470 fps= 99 q=-0.0 size=N/A time=00:02:24.72 bitrate=N/A speed=4.13x    frame= 3532 fps= 99 q=-0.0 size=N/A time=00:02:27.31 bitrate=N/A speed=4.14x    frame= 3583 fps= 99 q=-0.0 size=N/A time=00:02:29.44 bitrate=N/A speed=4.14x    frame= 3634 fps= 99 q=-0.0 size=N/A time=00:02:31.56 bitrate=N/A speed=4.14x    frame= 3680 fps= 99 q=-0.0 size=N/A time=00:02:33.48 bitrate=N/A speed=4.13x    frame= 3738 fps= 99 q=-0.0 size=N/A time=00:02:35.90 bitrate=N/A speed=4.14x    frame= 3790 fps= 99 q=-0.0 size=N/A time=00:02:38.07 bitrate=N/A speed=4.14x    frame= 3840 fps= 99 q=-0.0 size=N/A time=00:02:40.16 bitrate=N/A speed=4.14x    frame= 3892 fps= 99 q=-0.0 size=N/A time=00:02:42.32 bitrate=N/A speed=4.14x    frame= 3942 fps= 99 q=-0.0 size=N/A time=00:02:44.41 bitrate=N/A speed=4.14x    frame= 3994 fps= 99 q=-0.0 size=N/A time=00:02:46.58 bitrate=N/A speed=4.14x    frame= 4044 fps= 99 q=-0.0 size=N/A time=00:02:48.66 bitrate=N/A speed=4.14x    frame= 4092 fps= 99 q=-0.0 size=N/A time=00:02:50.67 bitrate=N/A speed=4.14x    frame= 4147 fps= 99 q=-0.0 size=N/A time=00:02:52.96 bitrate=N/A speed=4.14x    frame= 4198 fps= 99 q=-0.0 size=N/A time=00:02:55.09 bitrate=N/A speed=4.14x    frame= 4251 fps= 99 q=-0.0 size=N/A time=00:02:57.30 bitrate=N/A speed=4.14x    frame= 4297 fps= 99 q=-0.0 size=N/A time=00:02:59.22 bitrate=N/A speed=4.14x    frame= 4354 fps= 99 q=-0.0 size=N/A time=00:03:01.59 bitrate=N/A speed=4.14x    frame= 4396 fps= 99 q=-0.0 size=N/A time=00:03:03.34 bitrate=N/A speed=4.13x    frame= 4460 fps= 99 q=-0.0 size=N/A time=00:03:06.01 bitrate=N/A speed=4.15x    frame= 4505 fps= 99 q=-0.0 size=N/A time=00:03:07.89 bitrate=N/A speed=4.14x    frame= 4564 fps= 99 q=-0.0 size=N/A time=00:03:10.35 bitrate=N/A speed=4.15x    frame= 4616 fps= 99 q=-0.0 size=N/A time=00:03:12.52 bitrate=N/A speed=4.15x    frame= 4663 fps= 99 q=-0.0 size=N/A time=00:03:14.48 bitrate=N/A speed=4.14x    frame= 4720 fps= 99 q=-0.0 size=N/A time=00:03:16.86 bitrate=N/A speed=4.15x    frame= 4770 fps= 99 q=-0.0 size=N/A time=00:03:18.94 bitrate=N/A speed=4.15x    frame= 4816 fps= 99 q=-0.0 size=N/A time=00:03:20.86 bitrate=N/A speed=4.14x    frame= 4874 fps= 99 q=-0.0 size=N/A time=00:03:23.28 bitrate=N/A speed=4.15x    frame= 4918 fps= 99 q=-0.0 size=N/A time=00:03:25.12 bitrate=N/A speed=4.14x    frame= 4978 fps=100 q=-0.0 size=N/A time=00:03:27.62 bitrate=N/A speed=4.15x    frame= 5021 fps= 99 q=-0.0 size=N/A time=00:03:29.41 bitrate=N/A speed=4.14x    frame= 5076 fps= 99 q=-0.0 size=N/A time=00:03:31.71 bitrate=N/A speed=4.15x    frame= 5132 fps=100 q=-0.0 size=N/A time=00:03:34.04 bitrate=N/A speed=4.15x    frame= 5184 fps=100 q=-0.0 size=N/A time=00:03:36.21 bitrate=N/A speed=4.15x    frame= 5223 fps= 99 q=-0.0 size=N/A time=00:03:37.84 bitrate=N/A speed=4.14x    frame= 5288 fps=100 q=-0.0 size=N/A time=00:03:40.55 bitrate=N/A speed=4.15x    frame= 5338 fps=100 q=-0.0 size=N/A time=00:03:42.63 bitrate=N/A speed=4.15x    frame= 5390 fps=100 q=-0.0 size=N/A time=00:03:44.80 bitrate=N/A speed=4.15x    frame= 5442 fps=100 q=-0.0 size=N/A time=00:03:46.97 bitrate=N/A speed=4.15x    frame= 5488 fps= 99 q=-0.0 size=N/A time=00:03:48.89 bitrate=N/A speed=4.15x    frame= 5547 fps=100 q=-0.0 size=N/A time=00:03:51.35 bitrate=N/A speed=4.15x    frame= 5598 fps=100 q=-0.0 size=N/A time=00:03:53.48 bitrate=N/A speed=4.15x    frame= 5646 fps=100 q=-0.0 size=N/A time=00:03:55.48 bitrate=N/A speed=4.15x    frame= 5702 fps=100 q=-0.0 size=N/A time=00:03:57.82 bitrate=N/A speed=4.15x    frame= 5742 fps= 99 q=-0.0 size=N/A time=00:03:59.48 bitrate=N/A speed=4.15x    frame= 5806 fps=100 q=-0.0 size=N/A time=00:04:02.15 bitrate=N/A speed=4.16x    frame= 5857 fps=100 q=-0.0 size=N/A time=00:04:04.28 bitrate=N/A speed=4.16x    frame= 5909 fps=100 q=-0.0 size=N/A time=00:04:06.45 bitrate=N/A speed=4.16x    frame= 5962 fps=100 q=-0.0 size=N/A time=00:04:08.66 bitrate=N/A speed=4.16x    frame= 6013 fps=100 q=-0.0 size=N/A time=00:04:10.79 bitrate=N/A speed=4.16x    frame= 6062 fps=100 q=-0.0 size=N/A time=00:04:12.83 bitrate=N/A speed=4.16x    frame= 6117 fps=100 q=-0.0 size=N/A time=00:04:15.12 bitrate=N/A speed=4.16x    frame= 6170 fps=100 q=-0.0 size=N/A time=00:04:17.34 bitrate=N/A speed=4.16x    frame= 6221 fps=100 q=-0.0 size=N/A time=00:04:19.46 bitrate=N/A speed=4.16x    frame= 6273 fps=100 q=-0.0 size=N/A time=00:04:21.63 bitrate=N/A speed=4.16x    frame= 6314 fps=100 q=-0.0 size=N/A time=00:04:23.34 bitrate=N/A speed=4.15x    frame= 6359 fps= 99 q=-0.0 size=N/A time=00:04:25.22 bitrate=N/A speed=4.15x    frame= 6428 fps=100 q=-0.0 size=N/A time=00:04:28.10 bitrate=N/A speed=4.16x    frame= 6476 fps=100 q=-0.0 size=N/A time=00:04:30.10 bitrate=N/A speed=4.16x    frame= 6531 fps=100 q=-0.0 size=N/A time=00:04:32.39 bitrate=N/A speed=4.16x    frame= 6575 fps=100 q=-0.0 size=N/A time=00:04:34.23 bitrate=N/A speed=4.15x    frame= 6626 fps=100 q=-0.0 size=N/A time=00:04:36.35 bitrate=N/A speed=4.15x    frame= 6686 fps=100 q=-0.0 size=N/A time=00:04:38.86 bitrate=N/A speed=4.16x    frame= 6740 fps=100 q=-0.0 size=N/A time=00:04:41.11 bitrate=N/A speed=4.16x    frame= 6791 fps=100 q=-0.0 size=N/A time=00:04:43.24 bitrate=N/A speed=4.16x    frame= 6839 fps=100 q=-0.0 size=N/A time=00:04:45.24 bitrate=N/A speed=4.16x    frame= 6896 fps=100 q=-0.0 size=N/A time=00:04:47.62 bitrate=N/A speed=4.16x    frame= 6949 fps=100 q=-0.0 size=N/A time=00:04:49.83 bitrate=N/A speed=4.16x    frame= 6991 fps=100 q=-0.0 size=N/A time=00:04:51.58 bitrate=N/A speed=4.16x    frame= 7053 fps=100 q=-0.0 size=N/A time=00:04:54.16 bitrate=N/A speed=4.16x    frame= 7098 fps=100 q=-0.0 size=N/A time=00:04:56.04 bitrate=N/A speed=4.16x    frame= 7149 fps=100 q=-0.0 size=N/A time=00:04:58.17 bitrate=N/A speed=4.16x    frame= 7210 fps=100 q=-0.0 size=N/A time=00:05:00.71 bitrate=N/A speed=4.16x    frame= 7248 fps=100 q=-0.0 size=N/A time=00:05:02.30 bitrate=N/A speed=4.16x    frame= 7306 fps=100 q=-0.0 size=N/A time=00:05:04.72 bitrate=N/A speed=4.16x    frame= 7364 fps=100 q=-0.0 size=N/A time=00:05:07.14 bitrate=N/A speed=4.16x    frame= 7414 fps=100 q=-0.0 size=N/A time=00:05:09.22 bitrate=N/A speed=4.16x    frame= 7469 fps=100 q=-0.0 size=N/A time=00:05:11.51 bitrate=N/A speed=4.16x    frame= 7521 fps=100 q=-0.0 size=N/A time=00:05:13.68 bitrate=N/A speed=4.16x    frame= 7567 fps=100 q=-0.0 size=N/A time=00:05:15.60 bitrate=N/A speed=4.16x    frame= 7625 fps=100 q=-0.0 size=N/A time=00:05:18.02 bitrate=N/A speed=4.17x    frame= 7676 fps=100 q=-0.0 size=N/A time=00:05:20.15 bitrate=N/A speed=4.16x    frame= 7721 fps=100 q=-0.0 size=N/A time=00:05:22.03 bitrate=N/A speed=4.16x    frame= 7778 fps=100 q=-0.0 size=N/A time=00:05:24.40 bitrate=N/A speed=4.16x    frame= 7827 fps=100 q=-0.0 size=N/A time=00:05:26.45 bitrate=N/A speed=4.16x    frame= 7882 fps=100 q=-0.0 size=N/A time=00:05:28.74 bitrate=N/A speed=4.17x    frame= 7935 fps=100 q=-0.0 size=N/A time=00:05:30.95 bitrate=N/A speed=4.17x    frame= 7986 fps=100 q=-0.0 size=N/A time=00:05:33.08 bitrate=N/A speed=4.17x    frame= 8034 fps=100 q=-0.0 size=N/A time=00:05:35.08 bitrate=N/A speed=4.16x    frame= 8090 fps=100 q=-0.0 size=N/A time=00:05:37.42 bitrate=N/A speed=4.17x    frame= 8141 fps=100 q=-0.0 size=N/A time=00:05:39.54 bitrate=N/A speed=4.17x    frame= 8193 fps=100 q=-0.0 size=N/A time=00:05:41.71 bitrate=N/A speed=4.17x    frame= 8244 fps=100 q=-0.0 size=N/A time=00:05:43.84 bitrate=N/A speed=4.17x    frame= 8297 fps=100 q=-0.0 size=N/A time=00:05:46.05 bitrate=N/A speed=4.17x    frame= 8350 fps=100 q=-0.0 size=N/A time=00:05:48.26 bitrate=N/A speed=4.17x    frame= 8402 fps=100 q=-0.0 size=N/A time=00:05:50.43 bitrate=N/A speed=4.17x    frame= 8453 fps=100 q=-0.0 size=N/A time=00:05:52.56 bitrate=N/A speed=4.17x    frame= 8500 fps=100 q=-0.0 size=N/A time=00:05:54.52 bitrate=N/A speed=4.17x    frame= 8553 fps=100 q=-0.0 size=N/A time=00:05:56.73 bitrate=N/A speed=4.17x    frame= 8607 fps=100 q=-0.0 size=N/A time=00:05:58.98 bitrate=N/A speed=4.17x    frame= 8661 fps=100 q=-0.0 size=N/A time=00:06:01.23 bitrate=N/A speed=4.17x    frame= 8711 fps=100 q=-0.0 size=N/A time=00:06:03.32 bitrate=N/A speed=4.17x    frame= 8751 fps=100 q=-0.0 size=N/A time=00:06:04.98 bitrate=N/A speed=4.16x    frame= 8814 fps=100 q=-0.0 size=N/A time=00:06:07.61 bitrate=N/A speed=4.17x    frame= 8862 fps=100 q=-0.0 size=N/A time=00:06:09.61 bitrate=N/A speed=4.17x    frame= 8918 fps=100 q=-0.0 size=N/A time=00:06:11.95 bitrate=N/A speed=4.17x    frame= 8961 fps=100 q=-0.0 size=N/A time=00:06:13.74 bitrate=N/A speed=4.16x    frame= 9013 fps=100 q=-0.0 size=N/A time=00:06:15.91 bitrate=N/A speed=4.16x    frame= 9075 fps=100 q=-0.0 size=N/A time=00:06:18.50 bitrate=N/A speed=4.17x    frame= 9114 fps=100 q=-0.0 size=N/A time=00:06:20.12 bitrate=N/A speed=4.16x    frame= 9176 fps=100 q=-0.0 size=N/A time=00:06:22.71 bitrate=N/A speed=4.17x    frame= 9231 fps=100 q=-0.0 size=N/A time=00:06:25.00 bitrate=N/A speed=4.17x    frame= 9282 fps=100 q=-0.0 size=N/A time=00:06:27.13 bitrate=N/A speed=4.17x    frame= 9328 fps=100 q=-0.0 size=N/A time=00:06:29.05 bitrate=N/A speed=4.17x    frame= 9383 fps=100 q=-0.0 size=N/A time=00:06:31.34 bitrate=N/A speed=4.17x    frame= 9432 fps=100 q=-0.0 size=N/A time=00:06:33.39 bitrate=N/A speed=4.17x    frame= 9488 fps=100 q=-0.0 size=N/A time=00:06:35.72 bitrate=N/A speed=4.17x    frame= 9539 fps=100 q=-0.0 size=N/A time=00:06:37.85 bitrate=N/A speed=4.17x    frame= 9591 fps=100 q=-0.0 size=N/A time=00:06:40.02 bitrate=N/A speed=4.17x    frame= 9626 fps=100 q=-0.0 size=N/A time=00:06:41.48 bitrate=N/A speed=4.16x    frame= 9681 fps=100 q=-0.0 size=N/A time=00:06:43.77 bitrate=N/A speed=4.16x    frame= 9746 fps=100 q=-0.0 size=N/A time=00:06:46.48 bitrate=N/A speed=4.17x    frame= 9792 fps=100 q=-0.0 size=N/A time=00:06:48.40 bitrate=N/A speed=4.17x    frame= 9846 fps=100 q=-0.0 size=N/A time=00:06:50.66 bitrate=N/A speed=4.17x    frame= 9900 fps=100 q=-0.0 size=N/A time=00:06:52.91 bitrate=N/A speed=4.17x    frame= 9947 fps=100 q=-0.0 size=N/A time=00:06:54.87 bitrate=N/A speed=4.17x    frame=10001 fps=100 q=-0.0 size=N/A time=00:06:57.12 bitrate=N/A speed=4.17x    frame=10054 fps=100 q=-0.0 size=N/A time=00:06:59.33 bitrate=N/A speed=4.17x    frame=10105 fps=100 q=-0.0 size=N/A time=00:07:01.46 bitrate=N/A speed=4.17x    frame=10158 fps=100 q=-0.0 size=N/A time=00:07:03.67 bitrate=N/A speed=4.17x    frame=10202 fps=100 q=-0.0 size=N/A time=00:07:05.50 bitrate=N/A speed=4.17x    frame=10260 fps=100 q=-0.0 size=N/A time=00:07:07.92 bitrate=N/A speed=4.17x    frame=10313 fps=100 q=-0.0 size=N/A time=00:07:10.13 bitrate=N/A speed=4.17x    frame=10366 fps=100 q=-0.0 size=N/A time=00:07:12.34 bitrate=N/A speed=4.17x    frame=10417 fps=100 q=-0.0 size=N/A time=00:07:14.47 bitrate=N/A speed=4.17x    frame=10469 fps=100 q=-0.0 size=N/A time=00:07:16.64 bitrate=N/A speed=4.17x    frame=10515 fps=100 q=-0.0 size=N/A time=00:07:18.56 bitrate=N/A speed=4.17x    frame=10573 fps=100 q=-0.0 size=N/A time=00:07:20.98 bitrate=N/A speed=4.17x    frame=10616 fps=100 q=-0.0 size=N/A time=00:07:22.77 bitrate=N/A speed=4.17x    frame=10679 fps=100 q=-0.0 size=N/A time=00:07:25.40 bitrate=N/A speed=4.17x    frame=10728 fps=100 q=-0.0 size=N/A time=00:07:27.44 bitrate=N/A speed=4.17x    frame=10783 fps=100 q=-0.0 size=N/A time=00:07:29.74 bitrate=N/A speed=4.17x    frame=10833 fps=100 q=-0.0 size=N/A time=00:07:31.82 bitrate=N/A speed=4.17x    frame=10879 fps=100 q=-0.0 size=N/A time=00:07:33.74 bitrate=N/A speed=4.17x    frame=10937 fps=100 q=-0.0 size=N/A time=00:07:36.16 bitrate=N/A speed=4.17x    frame=10988 fps=100 q=-0.0 size=N/A time=00:07:38.29 bitrate=N/A speed=4.17x    frame=11039 fps=100 q=-0.0 size=N/A time=00:07:40.41 bitrate=N/A speed=4.17x    frame=11091 fps=100 q=-0.0 size=N/A time=00:07:42.58 bitrate=N/A speed=4.17x    frame=11143 fps=100 q=-0.0 size=N/A time=00:07:44.75 bitrate=N/A speed=4.17x    frame=11190 fps=100 q=-0.0 size=N/A time=00:07:46.71 bitrate=N/A speed=4.17x    frame=11246 fps=100 q=-0.0 size=N/A time=00:07:49.05 bitrate=N/A speed=4.17x    frame=11299 fps=100 q=-0.0 size=N/A time=00:07:51.26 bitrate=N/A speed=4.17x    frame=11343 fps=100 q=-0.0 size=N/A time=00:07:53.09 bitrate=N/A speed=4.17x    frame=11394 fps=100 q=-0.0 size=N/A time=00:07:55.22 bitrate=N/A speed=4.17x    frame=11454 fps=100 q=-0.0 size=N/A time=00:07:57.72 bitrate=N/A speed=4.17x    frame=11502 fps=100 q=-0.0 size=N/A time=00:07:59.72 bitrate=N/A speed=4.17x    frame=11559 fps=100 q=-0.0 size=N/A time=00:08:02.10 bitrate=N/A speed=4.17x    frame=11598 fps=100 q=-0.0 size=N/A time=00:08:03.73 bitrate=N/A speed=4.17x    frame=11650 fps=100 q=-0.0 size=N/A time=00:08:05.90 bitrate=N/A speed=4.17x    frame=11715 fps=100 q=-0.0 size=N/A time=00:08:08.61 bitrate=N/A speed=4.17x    frame=11761 fps=100 q=-0.0 size=N/A time=00:08:10.53 bitrate=N/A speed=4.17x    frame=11818 fps=100 q=-0.0 size=N/A time=00:08:12.90 bitrate=N/A speed=4.17x    frame=11863 fps=100 q=-0.0 size=N/A time=00:08:14.78 bitrate=N/A speed=4.17x    frame=11922 fps=100 q=-0.0 size=N/A time=00:08:17.24 bitrate=N/A speed=4.17x    frame=11971 fps=100 q=-0.0 size=N/A time=00:08:19.29 bitrate=N/A speed=4.17x    frame=12027 fps=100 q=-0.0 size=N/A time=00:08:21.62 bitrate=N/A speed=4.17x    frame=12066 fps=100 q=-0.0 size=N/A time=00:08:23.25 bitrate=N/A speed=4.17x    frame=12130 fps=100 q=-0.0 size=N/A time=00:08:25.92 bitrate=N/A speed=4.17x    frame=12167 fps=100 q=-0.0 size=N/A time=00:08:27.46 bitrate=N/A speed=4.17x    frame=12232 fps=100 q=-0.0 size=N/A time=00:08:30.17 bitrate=N/A speed=4.17x    frame=12282 fps=100 q=-0.0 size=N/A time=00:08:32.26 bitrate=N/A speed=4.17x    frame=12335 fps=100 q=-0.0 size=N/A time=00:08:34.47 bitrate=N/A speed=4.17x    frame=12379 fps=100 q=-0.0 size=N/A time=00:08:36.30 bitrate=N/A speed=4.17x    frame=12433 fps=100 q=-0.0 size=N/A time=00:08:38.55 bitrate=N/A speed=4.17x    frame=12491 fps=100 q=-0.0 size=N/A time=00:08:40.97 bitrate=N/A speed=4.17x    frame=12544 fps=100 q=-0.0 size=N/A time=00:08:43.18 bitrate=N/A speed=4.17x    frame=12594 fps=100 q=-0.0 size=N/A time=00:08:45.27 bitrate=N/A speed=4.17x    frame=12643 fps=100 q=-0.0 size=N/A time=00:08:47.31 bitrate=N/A speed=4.17x    frame=12699 fps=100 q=-0.0 size=N/A time=00:08:49.65 bitrate=N/A speed=4.17x    frame=12751 fps=100 q=-0.0 size=N/A time=00:08:51.82 bitrate=N/A speed=4.17x    frame=12794 fps=100 q=-0.0 size=N/A time=00:08:53.61 bitrate=N/A speed=4.17x    frame=12857 fps=100 q=-0.0 size=N/A time=00:08:56.24 bitrate=N/A speed=4.17x    frame=12908 fps=100 q=-0.0 size=N/A time=00:08:58.37 bitrate=N/A speed=4.17x    frame=12954 fps=100 q=-0.0 size=N/A time=00:09:00.28 bitrate=N/A speed=4.17x    frame=13012 fps=100 q=-0.0 size=N/A time=00:09:02.70 bitrate=N/A speed=4.17x    frame=13057 fps=100 q=-0.0 size=N/A time=00:09:04.58 bitrate=N/A speed=4.17x    frame=13118 fps=100 q=-0.0 size=N/A time=00:09:07.12 bitrate=N/A speed=4.17x    frame=13169 fps=100 q=-0.0 size=N/A time=00:09:09.25 bitrate=N/A speed=4.17x    frame=13221 fps=100 q=-0.0 size=N/A time=00:09:11.42 bitrate=N/A speed=4.17x    frame=13271 fps=100 q=-0.0 size=N/A time=00:09:13.51 bitrate=N/A speed=4.17x    frame=13325 fps=100 q=-0.0 size=N/A time=00:09:15.76 bitrate=N/A speed=4.17x    frame=13376 fps=100 q=-0.0 size=N/A time=00:09:17.89 bitrate=N/A speed=4.17x    frame=13429 fps=100 q=-0.0 size=N/A time=00:09:20.10 bitrate=N/A speed=4.17x    frame=13481 fps=100 q=-0.0 size=N/A time=00:09:22.27 bitrate=N/A speed=4.17x    frame=13531 fps=100 q=-0.0 size=N/A time=00:09:24.35 bitrate=N/A speed=4.17x    frame=13583 fps=100 q=-0.0 size=N/A time=00:09:26.52 bitrate=N/A speed=4.17x    frame=13633 fps=100 q=-0.0 size=N/A time=00:09:28.60 bitrate=N/A speed=4.17x    frame=13681 fps=100 q=-0.0 size=N/A time=00:09:30.61 bitrate=N/A speed=4.17x    frame=13736 fps=100 q=-0.0 size=N/A time=00:09:32.90 bitrate=N/A speed=4.17x    frame=13780 fps=100 q=-0.0 size=N/A time=00:09:34.74 bitrate=N/A speed=4.17x    frame=13836 fps=100 q=-0.0 size=N/A time=00:09:37.07 bitrate=N/A speed=4.17x    frame=13890 fps=100 q=-0.0 size=N/A time=00:09:39.32 bitrate=N/A speed=4.17x    frame=13941 fps=100 q=-0.0 size=N/A time=00:09:41.45 bitrate=N/A speed=4.17x    frame=13994 fps=100 q=-0.0 size=N/A time=00:09:43.66 bitrate=N/A speed=4.17x    frame=14043 fps=100 q=-0.0 size=N/A time=00:09:45.71 bitrate=N/A speed=4.17x    frame=14096 fps=100 q=-0.0 size=N/A time=00:09:47.92 bitrate=N/A speed=4.17x    frame=14143 fps=100 q=-0.0 size=N/A time=00:09:49.88 bitrate=N/A speed=4.17x    frame=14202 fps=100 q=-0.0 size=N/A time=00:09:52.34 bitrate=N/A speed=4.17x    frame=14251 fps=100 q=-0.0 size=N/A time=00:09:54.38 bitrate=N/A speed=4.17x    frame=14307 fps=100 q=-0.0 size=N/A time=00:09:56.72 bitrate=N/A speed=4.18x    frame=14355 fps=100 q=-0.0 size=N/A time=00:09:58.72 bitrate=N/A speed=4.17x    frame=14411 fps=100 q=-0.0 size=N/A time=00:10:01.05 bitrate=N/A speed=4.18x    frame=14459 fps=100 q=-0.0 size=N/A time=00:10:03.06 bitrate=N/A speed=4.17x    frame=14514 fps=100 q=-0.0 size=N/A time=00:10:05.35 bitrate=N/A speed=4.17x    frame=14555 fps=100 q=-0.0 size=N/A time=00:10:07.06 bitrate=N/A speed=4.17x    frame=14616 fps=100 q=-0.0 size=N/A time=00:10:09.60 bitrate=N/A speed=4.18x    frame=14669 fps=100 q=-0.0 size=N/A time=00:10:11.81 bitrate=N/A speed=4.18x    frame=14715 fps=100 q=-0.0 size=N/A time=00:10:13.73 bitrate=N/A speed=4.17x    frame=14772 fps=100 q=-0.0 size=N/A time=00:10:16.11 bitrate=N/A speed=4.17x    frame=14816 fps=100 q=-0.0 size=N/A time=00:10:17.95 bitrate=N/A speed=4.17x    frame=14874 fps=100 q=-0.0 size=N/A time=00:10:20.36 bitrate=N/A speed=4.17x    frame=14926 fps=100 q=-0.0 size=N/A time=00:10:22.53 bitrate=N/A speed=4.17x    frame=14973 fps=100 q=-0.0 size=N/A time=00:10:24.49 bitrate=N/A speed=4.17x    frame=15031 fps=100 q=-0.0 size=N/A time=00:10:26.91 bitrate=N/A speed=4.18x    frame=15083 fps=100 q=-0.0 size=N/A time=00:10:29.08 bitrate=N/A speed=4.18x    frame=15135 fps=100 q=-0.0 size=N/A time=00:10:31.25 bitrate=N/A speed=4.18x    frame=15182 fps=100 q=-0.0 size=N/A time=00:10:33.21 bitrate=N/A speed=4.17x    frame=15239 fps=100 q=-0.0 size=N/A time=00:10:35.59 bitrate=N/A speed=4.18x    frame=15292 fps=100 q=-0.0 size=N/A time=00:10:37.80 bitrate=N/A speed=4.18x    frame=15341 fps=100 q=-0.0 size=N/A time=00:10:39.84 bitrate=N/A speed=4.18x    frame=15397 fps=100 q=-0.0 size=N/A time=00:10:42.18 bitrate=N/A speed=4.18x    frame=15448 fps=100 q=-0.0 size=N/A time=00:10:44.31 bitrate=N/A speed=4.18x    frame=15493 fps=100 q=-0.0 size=N/A time=00:10:46.18 bitrate=N/A speed=4.17x    frame=15553 fps=100 q=-0.0 size=N/A time=00:10:48.68 bitrate=N/A speed=4.18x    frame=15600 fps=100 q=-0.0 size=N/A time=00:10:50.65 bitrate=N/A speed=4.18x    frame=15656 fps=100 q=-0.0 size=N/A time=00:10:52.98 bitrate=N/A speed=4.18x    frame=15708 fps=100 q=-0.0 size=N/A time=00:10:55.15 bitrate=N/A speed=4.18x    frame=15757 fps=100 q=-0.0 size=N/A time=00:10:57.19 bitrate=N/A speed=4.18x    frame=15812 fps=100 q=-0.0 size=N/A time=00:10:59.49 bitrate=N/A speed=4.18x    frame=15848 fps=100 q=-0.0 size=N/A time=00:11:00.99 bitrate=N/A speed=4.17x    frame=15907 fps=100 q=-0.0 size=N/A time=00:11:03.45 bitrate=N/A speed=4.17x    frame=15965 fps=100 q=-0.0 size=N/A time=00:11:05.87 bitrate=N/A speed=4.18x    frame=16016 fps=100 q=-0.0 size=N/A time=00:11:08.00 bitrate=N/A speed=4.18x    frame=16068 fps=100 q=-0.0 size=N/A time=00:11:10.16 bitrate=N/A speed=4.18x    frame=16115 fps=100 q=-0.0 size=N/A time=00:11:12.12 bitrate=N/A speed=4.18x    frame=16173 fps=100 q=-0.0 size=N/A time=00:11:14.54 bitrate=N/A speed=4.18x    frame=16224 fps=100 q=-0.0 size=N/A time=00:11:16.67 bitrate=N/A speed=4.18x    frame=16268 fps=100 q=-0.0 size=N/A time=00:11:18.51 bitrate=N/A speed=4.17x    frame=16330 fps=100 q=-0.0 size=N/A time=00:11:21.09 bitrate=N/A speed=4.18x    frame=16370 fps=100 q=-0.0 size=N/A time=00:11:22.76 bitrate=N/A speed=4.17x    frame=16433 fps=100 q=-0.0 size=N/A time=00:11:25.39 bitrate=N/A speed=4.18x    frame=16486 fps=100 q=-0.0 size=N/A time=00:11:27.60 bitrate=N/A speed=4.18x    frame=16538 fps=100 q=-0.0 size=N/A time=00:11:29.77 bitrate=N/A speed=4.18x    frame=16590 fps=100 q=-0.0 size=N/A time=00:11:31.94 bitrate=N/A speed=4.18x    frame=16638 fps=100 q=-0.0 size=N/A time=00:11:33.94 bitrate=N/A speed=4.18x    frame=16689 fps=100 q=-0.0 size=N/A time=00:11:36.07 bitrate=N/A speed=4.18x    frame=16747 fps=100 q=-0.0 size=N/A time=00:11:38.48 bitrate=N/A speed=4.18x    frame=16790 fps=100 q=-0.0 size=N/A time=00:11:40.28 bitrate=N/A speed=4.18x    frame=16852 fps=100 q=-0.0 size=N/A time=00:11:42.86 bitrate=N/A speed=4.18x    frame=16896 fps=100 q=-0.0 size=N/A time=00:11:44.70 bitrate=N/A speed=4.18x    frame=16954 fps=100 q=-0.0 size=N/A time=00:11:47.12 bitrate=N/A speed=4.18x    frame=17003 fps=100 q=-0.0 size=N/A time=00:11:49.16 bitrate=N/A speed=4.18x    frame=17058 fps=100 q=-0.0 size=N/A time=00:11:51.46 bitrate=N/A speed=4.18x    frame=17102 fps=100 q=-0.0 size=N/A time=00:11:53.29 bitrate=N/A speed=4.18x    frame=17162 fps=100 q=-0.0 size=N/A time=00:11:55.79 bitrate=N/A speed=4.18x    frame=17212 fps=100 q=-0.0 size=N/A time=00:11:57.88 bitrate=N/A speed=4.18x    frame=17258 fps=100 q=-0.0 size=N/A time=00:11:59.80 bitrate=N/A speed=4.18x    frame=17312 fps=100 q=-0.0 size=N/A time=00:12:02.05 bitrate=N/A speed=4.18x    frame=17368 fps=100 q=-0.0 size=N/A time=00:12:04.39 bitrate=N/A speed=4.18x    frame=17413 fps=100 q=-0.0 size=N/A time=00:12:06.26 bitrate=N/A speed=4.18x    frame=17472 fps=100 q=-0.0 size=N/A time=00:12:08.72 bitrate=N/A speed=4.18x    frame=17522 fps=100 q=-0.0 size=N/A time=00:12:10.81 bitrate=N/A speed=4.18x    frame=17576 fps=100 q=-0.0 size=N/A time=00:12:13.06 bitrate=N/A speed=4.18x    frame=17621 fps=100 q=-0.0 size=N/A time=00:12:14.94 bitrate=N/A speed=4.18x    frame=17682 fps=100 q=-0.0 size=N/A time=00:12:17.48 bitrate=N/A speed=4.18x    frame=17733 fps=100 q=-0.0 size=N/A time=00:12:19.61 bitrate=N/A speed=4.18x    frame=17786 fps=100 q=-0.0 size=N/A time=00:12:21.82 bitrate=N/A speed=4.18x    frame=17837 fps=100 q=-0.0 size=N/A time=00:12:23.95 bitrate=N/A speed=4.18x    frame=17887 fps=100 q=-0.0 size=N/A time=00:12:26.03 bitrate=N/A speed=4.18x    frame=17941 fps=100 q=-0.0 size=N/A time=00:12:28.28 bitrate=N/A speed=4.18x    frame=17993 fps=100 q=-0.0 size=N/A time=00:12:30.45 bitrate=N/A speed=4.18x    frame=18040 fps=100 q=-0.0 size=N/A time=00:12:32.41 bitrate=N/A speed=4.18x    frame=18094 fps=100 q=-0.0 size=N/A time=00:12:34.67 bitrate=N/A speed=4.18x    frame=18144 fps=100 q=-0.0 size=N/A time=00:12:36.75 bitrate=N/A speed=4.18x    frame=18199 fps=100 q=-0.0 size=N/A time=00:12:39.04 bitrate=N/A speed=4.18x    frame=18252 fps=100 q=-0.0 size=N/A time=00:12:41.26 bitrate=N/A speed=4.18x    frame=18295 fps=100 q=-0.0 size=N/A time=00:12:43.05 bitrate=N/A speed=4.18x    frame=18355 fps=100 q=-0.0 size=N/A time=00:12:45.55 bitrate=N/A speed=4.18x    frame=18400 fps=100 q=-0.0 size=N/A time=00:12:47.43 bitrate=N/A speed=4.18x    frame=18459 fps=100 q=-0.0 size=N/A time=00:12:49.89 bitrate=N/A speed=4.18x    frame=18510 fps=100 q=-0.0 size=N/A time=00:12:52.02 bitrate=N/A speed=4.18x    frame=18552 fps=100 q=-0.0 size=N/A time=00:12:53.77 bitrate=N/A speed=4.18x    frame=18614 fps=100 q=-0.0 size=N/A time=00:12:56.35 bitrate=N/A speed=4.18x    frame=18660 fps=100 q=-0.0 size=N/A time=00:12:58.27 bitrate=N/A speed=4.18x    frame=18718 fps=100 q=-0.0 size=N/A time=00:13:00.69 bitrate=N/A speed=4.18x    frame=18771 fps=100 q=-0.0 size=N/A time=00:13:02.90 bitrate=N/A speed=4.18x    frame=18814 fps=100 q=-0.0 size=N/A time=00:13:04.70 bitrate=N/A speed=4.18x    frame=18874 fps=100 q=-0.0 size=N/A time=00:13:07.20 bitrate=N/A speed=4.18x    frame=18927 fps=100 q=-0.0 size=N/A time=00:13:09.41 bitrate=N/A speed=4.18x    frame=18978 fps=100 q=-0.0 size=N/A time=00:13:11.54 bitrate=N/A speed=4.18x    frame=19026 fps=100 q=-0.0 size=N/A time=00:13:13.54 bitrate=N/A speed=4.18x    frame=19084 fps=100 q=-0.0 size=N/A time=00:13:15.96 bitrate=N/A speed=4.18x    frame=19136 fps=100 q=-0.0 size=N/A time=00:13:18.13 bitrate=N/A speed=4.18x    frame=19186 fps=100 q=-0.0 size=N/A time=00:13:20.21 bitrate=N/A speed=4.18x    frame=19240 fps=100 q=-0.0 size=N/A time=00:13:22.46 bitrate=N/A speed=4.18x    frame=19284 fps=100 q=-0.0 size=N/A time=00:13:24.30 bitrate=N/A speed=4.18x    frame=19340 fps=100 q=-0.0 size=N/A time=00:13:26.63 bitrate=N/A speed=4.18x    frame=19395 fps=100 q=-0.0 size=N/A time=00:13:28.93 bitrate=N/A speed=4.18x    frame=19436 fps=100 q=-0.0 size=N/A time=00:13:30.64 bitrate=N/A speed=4.18x    frame=19498 fps=100 q=-0.0 size=N/A time=00:13:33.22 bitrate=N/A speed=4.18x    frame=19539 fps=100 q=-0.0 size=N/A time=00:13:34.93 bitrate=N/A speed=4.18x    frame=19602 fps=100 q=-0.0 size=N/A time=00:13:37.56 bitrate=N/A speed=4.18x    frame=19647 fps=100 q=-0.0 size=N/A time=00:13:39.44 bitrate=N/A speed=4.18x    frame=19704 fps=100 q=-0.0 size=N/A time=00:13:41.82 bitrate=N/A speed=4.18x    frame=19747 fps=100 q=-0.0 size=N/A time=00:13:43.61 bitrate=N/A speed=4.18x    frame=19799 fps=100 q=-0.0 size=N/A time=00:13:45.78 bitrate=N/A speed=4.18x    frame=19860 fps=100 q=-0.0 size=N/A time=00:13:48.32 bitrate=N/A speed=4.18x    frame=19908 fps=100 q=-0.0 size=N/A time=00:13:50.32 bitrate=N/A speed=4.18x    frame=19964 fps=100 q=-0.0 size=N/A time=00:13:52.66 bitrate=N/A speed=4.18x    frame=20014 fps=100 q=-0.0 size=N/A time=00:13:54.75 bitrate=N/A speed=4.18x    frame=20067 fps=100 q=-0.0 size=N/A time=00:13:56.96 bitrate=N/A speed=4.18x    frame=20114 fps=100 q=-0.0 size=N/A time=00:13:58.92 bitrate=N/A speed=4.18x    frame=20172 fps=100 q=-0.0 size=N/A time=00:14:01.34 bitrate=N/A speed=4.18x    frame=20224 fps=100 q=-0.0 size=N/A time=00:14:03.50 bitrate=N/A speed=4.18x    frame=20276 fps=100 q=-0.0 size=N/A time=00:14:05.67 bitrate=N/A speed=4.18x    frame=20327 fps=100 q=-0.0 size=N/A time=00:14:07.80 bitrate=N/A speed=4.18x    frame=20379 fps=100 q=-0.0 size=N/A time=00:14:09.97 bitrate=N/A speed=4.18x    frame=20430 fps=100 q=-0.0 size=N/A time=00:14:12.10 bitrate=N/A speed=4.18x    frame=20482 fps=100 q=-0.0 size=N/A time=00:14:14.27 bitrate=N/A speed=4.18x    frame=20534 fps=100 q=-0.0 size=N/A time=00:14:16.43 bitrate=N/A speed=4.18x    frame=20585 fps=100 q=-0.0 size=N/A time=00:14:18.56 bitrate=N/A speed=4.18x    frame=20622 fps=100 q=-0.0 size=N/A time=00:14:20.10 bitrate=N/A speed=4.18x    frame=20689 fps=100 q=-0.0 size=N/A time=00:14:22.90 bitrate=N/A speed=4.18x    frame=20741 fps=100 q=-0.0 size=N/A time=00:14:25.07 bitrate=N/A speed=4.18x    frame=20776 fps=100 q=-0.0 size=N/A time=00:14:26.53 bitrate=N/A speed=4.18x    frame=20841 fps=100 q=-0.0 size=N/A time=00:14:29.24 bitrate=N/A speed=4.18x    frame=20895 fps=100 q=-0.0 size=N/A time=00:14:31.49 bitrate=N/A speed=4.18x    frame=20946 fps=100 q=-0.0 size=N/A time=00:14:33.62 bitrate=N/A speed=4.18x    frame=20998 fps=100 q=-0.0 size=N/A time=00:14:35.79 bitrate=N/A speed=4.18x    frame=21043 fps=100 q=-0.0 size=N/A time=00:14:37.66 bitrate=N/A speed=4.18x    frame=21102 fps=100 q=-0.0 size=N/A time=00:14:40.12 bitrate=N/A speed=4.18x    frame=21154 fps=100 q=-0.0 size=N/A time=00:14:42.29 bitrate=N/A speed=4.18x    frame=21207 fps=100 q=-0.0 size=N/A time=00:14:44.50 bitrate=N/A speed=4.18x    frame=21258 fps=100 q=-0.0 size=N/A time=00:14:46.63 bitrate=N/A speed=4.18x    frame=21297 fps=100 q=-0.0 size=N/A time=00:14:48.26 bitrate=N/A speed=4.18x    frame=21362 fps=100 q=-0.0 size=N/A time=00:14:50.97 bitrate=N/A speed=4.18x    frame=21404 fps=100 q=-0.0 size=N/A time=00:14:52.72 bitrate=N/A speed=4.18x    frame=21466 fps=100 q=-0.0 size=N/A time=00:14:55.31 bitrate=N/A speed=4.18x    frame=21513 fps=100 q=-0.0 size=N/A time=00:14:57.27 bitrate=N/A speed=4.18x    frame=21569 fps=100 q=-0.0 size=N/A time=00:14:59.60 bitrate=N/A speed=4.18x    frame=21620 fps=100 q=-0.0 size=N/A time=00:15:01.73 bitrate=N/A speed=4.18x    frame=21672 fps=100 q=-0.0 size=N/A time=00:15:03.90 bitrate=N/A speed=4.18x    frame=21722 fps=100 q=-0.0 size=N/A time=00:15:05.98 bitrate=N/A speed=4.18x    frame=21773 fps=100 q=-0.0 size=N/A time=00:15:08.11 bitrate=N/A speed=4.18x    frame=21825 fps=100 q=-0.0 size=N/A time=00:15:10.28 bitrate=N/A speed=4.18x    frame=21874 fps=100 q=-0.0 size=N/A time=00:15:12.32 bitrate=N/A speed=4.18x    frame=21918 fps=100 q=-0.0 size=N/A time=00:15:14.16 bitrate=N/A speed=4.18x    frame=21980 fps=100 q=-0.0 size=N/A time=00:15:16.74 bitrate=N/A speed=4.18x    frame=22020 fps=100 q=-0.0 size=N/A time=00:15:18.41 bitrate=N/A speed=4.18x    frame=22080 fps=100 q=-0.0 size=N/A time=00:15:20.92 bitrate=N/A speed=4.18x    frame=22131 fps=100 q=-0.0 size=N/A time=00:15:23.04 bitrate=N/A speed=4.18x    frame=22186 fps=100 q=-0.0 size=N/A time=00:15:25.34 bitrate=N/A speed=4.18x    frame=22239 fps=100 q=-0.0 size=N/A time=00:15:27.55 bitrate=N/A speed=4.18x    frame=22281 fps=100 q=-0.0 size=N/A time=00:15:29.30 bitrate=N/A speed=4.18x    frame=22326 fps=100 q=-0.0 size=N/A time=00:15:31.18 bitrate=N/A speed=4.18x    frame=22385 fps=100 q=-0.0 size=N/A time=00:15:33.64 bitrate=N/A speed=4.18x    frame=22438 fps=100 q=-0.0 size=N/A time=00:15:35.85 bitrate=N/A speed=4.18x    frame=22496 fps=100 q=-0.0 size=N/A time=00:15:38.27 bitrate=N/A speed=4.18x    frame=22547 fps=100 q=-0.0 size=N/A time=00:15:40.39 bitrate=N/A speed=4.18x    frame=22601 fps=100 q=-0.0 size=N/A time=00:15:42.65 bitrate=N/A speed=4.18x    frame=22652 fps=100 q=-0.0 size=N/A time=00:15:44.77 bitrate=N/A speed=4.18x    frame=22700 fps=100 q=-0.0 size=N/A time=00:15:46.77 bitrate=N/A speed=4.18x    frame=22757 fps=100 q=-0.0 size=N/A time=00:15:49.15 bitrate=N/A speed=4.18x    frame=22809 fps=100 q=-0.0 size=N/A time=00:15:51.32 bitrate=N/A speed=4.18x    frame=22862 fps=100 q=-0.0 size=N/A time=00:15:53.53 bitrate=N/A speed=4.18x    frame=22912 fps=100 q=-0.0 size=N/A time=00:15:55.62 bitrate=N/A speed=4.18x    frame=22960 fps=100 q=-0.0 size=N/A time=00:15:57.62 bitrate=N/A speed=4.18x    frame=23017 fps=100 q=-0.0 size=N/A time=00:16:00.00 bitrate=N/A speed=4.18x    frame=23058 fps=100 q=-0.0 size=N/A time=00:16:01.71 bitrate=N/A speed=4.18x    frame=23119 fps=100 q=-0.0 size=N/A time=00:16:04.25 bitrate=N/A speed=4.18x    frame=23161 fps=100 q=-0.0 size=N/A time=00:16:06.00 bitrate=N/A speed=4.18x    frame=23221 fps=100 q=-0.0 size=N/A time=00:16:08.50 bitrate=N/A speed=4.18x    frame=23273 fps=100 q=-0.0 size=N/A time=00:16:10.71 bitrate=N/A speed=4.18x    frame=23324 fps=100 q=-0.0 size=N/A time=00:16:12.80 bitrate=N/A speed=4.18x    frame=23375 fps=100 q=-0.0 size=N/A time=00:16:14.93 bitrate=N/A speed=4.18x    frame=23428 fps=100 q=-0.0 size=N/A time=00:16:17.14 bitrate=N/A speed=4.18x    frame=23479 fps=100 q=-0.0 size=N/A time=00:16:19.26 bitrate=N/A speed=4.18x    frame=23530 fps=100 q=-0.0 size=N/A time=00:16:21.39 bitrate=N/A speed=4.18x    frame=23577 fps=100 q=-0.0 size=N/A time=00:16:23.35 bitrate=N/A speed=4.18x    frame=23634 fps=100 q=-0.0 size=N/A time=00:16:25.73 bitrate=N/A speed=4.18x    frame=23686 fps=100 q=-0.0 size=N/A time=00:16:27.90 bitrate=N/A speed=4.18x    frame=23736 fps=100 q=-0.0 size=N/A time=00:16:29.98 bitrate=N/A speed=4.18x    frame=23785 fps=100 q=-0.0 size=N/A time=00:16:32.03 bitrate=N/A speed=4.18x    frame=23843 fps=100 q=-0.0 size=N/A time=00:16:34.45 bitrate=N/A speed=4.18x    frame=23895 fps=100 q=-0.0 size=N/A time=00:16:36.62 bitrate=N/A speed=4.18x    frame=23946 fps=100 q=-0.0 size=N/A time=00:16:38.74 bitrate=N/A speed=4.18x    frame=23996 fps=100 q=-0.0 size=N/A time=00:16:40.83 bitrate=N/A speed=4.18x    frame=24047 fps=100 q=-0.0 size=N/A time=00:16:42.96 bitrate=N/A speed=4.18x    frame=24100 fps=100 q=-0.0 size=N/A time=00:16:45.17 bitrate=N/A speed=4.18x    frame=24151 fps=100 q=-0.0 size=N/A time=00:16:47.29 bitrate=N/A speed=4.18x    frame=24198 fps=100 q=-0.0 size=N/A time=00:16:49.25 bitrate=N/A speed=4.18x    frame=24250 fps=100 q=-0.0 size=N/A time=00:16:51.42 bitrate=N/A speed=4.18x    frame=24296 fps=100 q=-0.0 size=N/A time=00:16:53.34 bitrate=N/A speed=4.18x    frame=24353 fps=100 q=-0.0 size=N/A time=00:16:55.72 bitrate=N/A speed=4.18x    frame=24409 fps=100 q=-0.0 size=N/A time=00:16:58.05 bitrate=N/A speed=4.18x    frame=24457 fps=100 q=-0.0 size=N/A time=00:17:00.06 bitrate=N/A speed=4.18x    frame=24514 fps=100 q=-0.0 size=N/A time=00:17:02.43 bitrate=N/A speed=4.18x    frame=24563 fps=100 q=-0.0 size=N/A time=00:17:04.48 bitrate=N/A speed=4.18x    frame=24617 fps=100 q=-0.0 size=N/A time=00:17:06.73 bitrate=N/A speed=4.18x    frame=24669 fps=100 q=-0.0 size=N/A time=00:17:08.90 bitrate=N/A speed=4.18x    frame=24714 fps=100 q=-0.0 size=N/A time=00:17:10.77 bitrate=N/A speed=4.18x    frame=24773 fps=100 q=-0.0 size=N/A time=00:17:13.24 bitrate=N/A speed=4.18x    frame=24822 fps=100 q=-0.0 size=N/A time=00:17:15.28 bitrate=N/A speed=4.18x    frame=24879 fps=100 q=-0.0 size=N/A time=00:17:17.66 bitrate=N/A speed=4.18x    frame=24923 fps=100 q=-0.0 size=N/A time=00:17:19.49 bitrate=N/A speed=4.18x    frame=24983 fps=100 q=-0.0 size=N/A time=00:17:21.99 bitrate=N/A speed=4.18x    frame=25027 fps=100 q=-0.0 size=N/A time=00:17:23.83 bitrate=N/A speed=4.18x    frame=25088 fps=100 q=-0.0 size=N/A time=00:17:26.37 bitrate=N/A speed=4.18x    frame=25137 fps=100 q=-0.0 size=N/A time=00:17:28.42 bitrate=N/A speed=4.18x    frame=25182 fps=100 q=-0.0 size=N/A time=00:17:30.29 bitrate=N/A speed=4.18x    frame=25241 fps=100 q=-0.0 size=N/A time=00:17:32.76 bitrate=N/A speed=4.18x    frame=25292 fps=100 q=-0.0 size=N/A time=00:17:34.88 bitrate=N/A speed=4.18x    frame=25344 fps=100 q=-0.0 size=N/A time=00:17:37.05 bitrate=N/A speed=4.18x    frame=25395 fps=100 q=-0.0 size=N/A time=00:17:39.18 bitrate=N/A speed=4.18x    frame=25447 fps=100 q=-0.0 size=N/A time=00:17:41.35 bitrate=N/A speed=4.18x    frame=25500 fps=100 q=-0.0 size=N/A time=00:17:43.56 bitrate=N/A speed=4.18x    frame=25551 fps=100 q=-0.0 size=N/A time=00:17:45.68 bitrate=N/A speed=4.18x    frame=25594 fps=100 q=-0.0 size=N/A time=00:17:47.48 bitrate=N/A speed=4.18x    frame=25654 fps=100 q=-0.0 size=N/A time=00:17:49.98 bitrate=N/A speed=4.18x    frame=25698 fps=100 q=-0.0 size=N/A time=00:17:51.82 bitrate=N/A speed=4.18x    frame=25757 fps=100 q=-0.0 size=N/A time=00:17:54.28 bitrate=N/A speed=4.18x    frame=25808 fps=100 q=-0.0 size=N/A time=00:17:56.40 bitrate=N/A speed=4.18x    frame=25852 fps=100 q=-0.0 size=N/A time=00:17:58.24 bitrate=N/A speed=4.18x    frame=25911 fps=100 q=-0.0 size=N/A time=00:18:00.70 bitrate=N/A speed=4.18x    frame=25964 fps=100 q=-0.0 size=N/A time=00:18:02.91 bitrate=N/A speed=4.18x    frame=26016 fps=100 q=-0.0 size=N/A time=00:18:05.08 bitrate=N/A speed=4.18x    frame=26067 fps=100 q=-0.0 size=N/A time=00:18:07.21 bitrate=N/A speed=4.18x    frame=26117 fps=100 q=-0.0 size=N/A time=00:18:09.29 bitrate=N/A speed=4.18x    frame=26169 fps=100 q=-0.0 size=N/A time=00:18:11.46 bitrate=N/A speed=4.18x    frame=26220 fps=100 q=-0.0 size=N/A time=00:18:13.59 bitrate=N/A speed=4.18x    frame=26270 fps=100 q=-0.0 size=N/A time=00:18:15.67 bitrate=N/A speed=4.18x    frame=26324 fps=100 q=-0.0 size=N/A time=00:18:17.93 bitrate=N/A speed=4.18x    frame=26375 fps=100 q=-0.0 size=N/A time=00:18:20.05 bitrate=N/A speed=4.18x    frame=26428 fps=100 q=-0.0 size=N/A time=00:18:22.26 bitrate=N/A speed=4.18x    frame=26479 fps=100 q=-0.0 size=N/A time=00:18:24.39 bitrate=N/A speed=4.18x    frame=26530 fps=100 q=-0.0 size=N/A time=00:18:26.52 bitrate=N/A speed=4.18x    frame=26575 fps=100 q=-0.0 size=N/A time=00:18:28.39 bitrate=N/A speed=4.18x    frame=26634 fps=100 q=-0.0 size=N/A time=00:18:30.85 bitrate=N/A speed=4.18x    frame=26685 fps=100 q=-0.0 size=N/A time=00:18:32.98 bitrate=N/A speed=4.18x    frame=26738 fps=100 q=-0.0 size=N/A time=00:18:35.19 bitrate=N/A speed=4.18x    frame=26781 fps=100 q=-0.0 size=N/A time=00:18:36.99 bitrate=N/A speed=4.18x    frame=26839 fps=100 q=-0.0 size=N/A time=00:18:39.40 bitrate=N/A speed=4.18x    frame=26892 fps=100 q=-0.0 size=N/A time=00:18:41.62 bitrate=N/A speed=4.18x    frame=26935 fps=100 q=-0.0 size=N/A time=00:18:43.41 bitrate=N/A speed=4.18x    frame=26988 fps=100 q=-0.0 size=N/A time=00:18:45.62 bitrate=N/A speed=4.18x    frame=27045 fps=100 q=-0.0 size=N/A time=00:18:48.00 bitrate=N/A speed=4.18x    frame=27097 fps=100 q=-0.0 size=N/A time=00:18:50.17 bitrate=N/A speed=4.18x    frame=27138 fps=100 q=-0.0 size=N/A time=00:18:51.88 bitrate=N/A speed=4.18x    frame=27199 fps=100 q=-0.0 size=N/A time=00:18:54.42 bitrate=N/A speed=4.18x    frame=27250 fps=100 q=-0.0 size=N/A time=00:18:56.55 bitrate=N/A speed=4.18x    frame=27296 fps=100 q=-0.0 size=N/A time=00:18:58.47 bitrate=N/A speed=4.18x    frame=27353 fps=100 q=-0.0 size=N/A time=00:19:00.84 bitrate=N/A speed=4.18x    frame=27404 fps=100 q=-0.0 size=N/A time=00:19:02.97 bitrate=N/A speed=4.18x    frame=27454 fps=100 q=-0.0 size=N/A time=00:19:05.06 bitrate=N/A speed=4.18x    frame=27506 fps=100 q=-0.0 size=N/A time=00:19:07.22 bitrate=N/A speed=4.18x    frame=27557 fps=100 q=-0.0 size=N/A time=00:19:09.35 bitrate=N/A speed=4.18x    frame=27603 fps=100 q=-0.0 size=N/A time=00:19:11.27 bitrate=N/A speed=4.18x    frame=27660 fps=100 q=-0.0 size=N/A time=00:19:13.65 bitrate=N/A speed=4.18x    frame=27707 fps=100 q=-0.0 size=N/A time=00:19:15.61 bitrate=N/A speed=4.18x    frame=27763 fps=100 q=-0.0 size=N/A time=00:19:17.94 bitrate=N/A speed=4.18x    frame=27814 fps=100 q=-0.0 size=N/A time=00:19:20.07 bitrate=N/A speed=4.18x    frame=27857 fps=100 q=-0.0 size=N/A time=00:19:21.86 bitrate=N/A speed=4.18x    frame=27918 fps=100 q=-0.0 size=N/A time=00:19:24.41 bitrate=N/A speed=4.18x    frame=27962 fps=100 q=-0.0 size=N/A time=00:19:26.24 bitrate=N/A speed=4.18x    frame=28021 fps=100 q=-0.0 size=N/A time=00:19:28.70 bitrate=N/A speed=4.18x    frame=28069 fps=100 q=-0.0 size=N/A time=00:19:30.71 bitrate=N/A speed=4.18x    frame=28122 fps=100 q=-0.0 size=N/A time=00:19:32.92 bitrate=N/A speed=4.18x    frame=28169 fps=100 q=-0.0 size=N/A time=00:19:34.88 bitrate=N/A speed=4.18x    frame=28226 fps=100 q=-0.0 size=N/A time=00:19:37.25 bitrate=N/A speed=4.18x    frame=28275 fps=100 q=-0.0 size=N/A time=00:19:39.30 bitrate=N/A speed=4.18x    frame=28328 fps=100 q=-0.0 size=N/A time=00:19:41.51 bitrate=N/A speed=4.18x    frame=28369 fps=100 q=-0.0 size=N/A time=00:19:43.22 bitrate=N/A speed=4.18x    frame=28432 fps=100 q=-0.0 size=N/A time=00:19:45.85 bitrate=N/A speed=4.18x    frame=28476 fps=100 q=-0.0 size=N/A time=00:19:47.68 bitrate=N/A speed=4.18x    frame=28537 fps=100 q=-0.0 size=N/A time=00:19:50.23 bitrate=N/A speed=4.18x    frame=28582 fps=100 q=-0.0 size=N/A time=00:19:52.10 bitrate=N/A speed=4.18x    frame=28639 fps=100 q=-0.0 size=N/A time=00:19:54.48 bitrate=N/A speed=4.18x    frame=28679 fps=100 q=-0.0 size=N/A time=00:19:56.15 bitrate=N/A speed=4.18x    frame=28743 fps=100 q=-0.0 size=N/A time=00:19:58.82 bitrate=N/A speed=4.18x    frame=28795 fps=100 q=-0.0 size=N/A time=00:20:00.99 bitrate=N/A speed=4.18x    frame=28840 fps=100 q=-0.0 size=N/A time=00:20:02.86 bitrate=N/A speed=4.18x    frame=28898 fps=100 q=-0.0 size=N/A time=00:20:05.28 bitrate=N/A speed=4.18x    frame=28951 fps=100 q=-0.0 size=N/A time=00:20:07.49 bitrate=N/A speed=4.18x    frame=29002 fps=100 q=-0.0 size=N/A time=00:20:09.62 bitrate=N/A speed=4.18x    frame=29053 fps=100 q=-0.0 size=N/A time=00:20:11.75 bitrate=N/A speed=4.18x    frame=29104 fps=100 q=-0.0 size=N/A time=00:20:13.87 bitrate=N/A speed=4.18x    frame=29152 fps=100 q=-0.0 size=N/A time=00:20:15.88 bitrate=N/A speed=4.18x    frame=29208 fps=100 q=-0.0 size=N/A time=00:20:18.21 bitrate=N/A speed=4.18x    frame=29260 fps=100 q=-0.0 size=N/A time=00:20:20.38 bitrate=N/A speed=4.18x    frame=29303 fps=100 q=-0.0 size=N/A time=00:20:22.17 bitrate=N/A speed=4.18x    frame=29355 fps=100 q=-0.0 size=N/A time=00:20:24.34 bitrate=N/A speed=4.18x    frame=29415 fps=100 q=-0.0 size=N/A time=00:20:26.85 bitrate=N/A speed=4.18x    frame=29461 fps=100 q=-0.0 size=N/A time=00:20:28.76 bitrate=N/A speed=4.18x    frame=29516 fps=100 q=-0.0 size=N/A time=00:20:31.06 bitrate=N/A speed=4.18x    frame=29569 fps=100 q=-0.0 size=N/A time=00:20:33.27 bitrate=N/A speed=4.18x    frame=29619 fps=100 q=-0.0 size=N/A time=00:20:35.35 bitrate=N/A speed=4.18x    frame=29670 fps=100 q=-0.0 size=N/A time=00:20:37.48 bitrate=N/A speed=4.18x    frame=29710 fps=100 q=-0.0 size=N/A time=00:20:39.15 bitrate=N/A speed=4.18x    frame=29773 fps=100 q=-0.0 size=N/A time=00:20:41.78 bitrate=N/A speed=4.18x    frame=29816 fps=100 q=-0.0 size=N/A time=00:20:43.57 bitrate=N/A speed=4.18x    frame=29874 fps=100 q=-0.0 size=N/A time=00:20:45.99 bitrate=N/A speed=4.18x    frame=29926 fps=100 q=-0.0 size=N/A time=00:20:48.16 bitrate=N/A speed=4.18x    frame=29979 fps=100 q=-0.0 size=N/A time=00:20:50.37 bitrate=N/A speed=4.18x    frame=30029 fps=100 q=-0.0 size=N/A time=00:20:52.45 bitrate=N/A speed=4.18x    frame=30081 fps=100 q=-0.0 size=N/A time=00:20:54.62 bitrate=N/A speed=4.18x    frame=30131 fps=100 q=-0.0 size=N/A time=00:20:56.71 bitrate=N/A speed=4.18x    frame=30178 fps=100 q=-0.0 size=N/A time=00:20:58.67 bitrate=N/A speed=4.18x    frame=30227 fps=100 q=-0.0 size=N/A time=00:21:00.71 bitrate=N/A speed=4.18x    frame=30277 fps=100 q=-0.0 size=N/A time=00:21:02.80 bitrate=N/A speed=4.18x    frame=30332 fps=100 q=-0.0 size=N/A time=00:21:05.09 bitrate=N/A speed=4.18x    frame=30383 fps=100 q=-0.0 size=N/A time=00:21:07.22 bitrate=N/A speed=4.18x    frame=30434 fps=100 q=-0.0 size=N/A time=00:21:09.35 bitrate=N/A speed=4.18x    frame=30486 fps=100 q=-0.0 size=N/A time=00:21:11.52 bitrate=N/A speed=4.18x    frame=30534 fps=100 q=-0.0 size=N/A time=00:21:13.52 bitrate=N/A speed=4.18x    frame=30591 fps=100 q=-0.0 size=N/A time=00:21:15.89 bitrate=N/A speed=4.18x    frame=30640 fps=100 q=-0.0 size=N/A time=00:21:17.94 bitrate=N/A speed=4.18x    frame=30686 fps=100 q=-0.0 size=N/A time=00:21:19.86 bitrate=N/A speed=4.18x    frame=30744 fps=100 q=-0.0 size=N/A time=00:21:22.28 bitrate=N/A speed=4.18x    frame=30788 fps=100 q=-0.0 size=N/A time=00:21:24.11 bitrate=N/A speed=4.18x    frame=30839 fps=100 q=-0.0 size=N/A time=00:21:26.24 bitrate=N/A speed=4.18x    frame=30887 fps=100 q=-0.0 size=N/A time=00:21:28.24 bitrate=N/A speed=4.18x    frame=30948 fps=100 q=-0.0 size=N/A time=00:21:30.78 bitrate=N/A speed=4.18x    frame=31002 fps=100 q=-0.0 size=N/A time=00:21:33.04 bitrate=N/A speed=4.18x    frame=31053 fps=100 q=-0.0 size=N/A time=00:21:35.16 bitrate=N/A speed=4.18x    frame=31104 fps=100 q=-0.0 size=N/A time=00:21:37.29 bitrate=N/A speed=4.18x    frame=31150 fps=100 q=-0.0 size=N/A time=00:21:39.21 bitrate=N/A speed=4.18x    frame=31208 fps=100 q=-0.0 size=N/A time=00:21:41.63 bitrate=N/A speed=4.18x    frame=31254 fps=100 q=-0.0 size=N/A time=00:21:43.55 bitrate=N/A speed=4.18x    frame=31312 fps=100 q=-0.0 size=N/A time=00:21:45.97 bitrate=N/A speed=4.18x    frame=31356 fps=100 q=-0.0 size=N/A time=00:21:47.80 bitrate=N/A speed=4.18x    frame=31413 fps=100 q=-0.0 size=N/A time=00:21:50.18 bitrate=N/A speed=4.18x    frame=31458 fps=100 q=-0.0 size=N/A time=00:21:52.06 bitrate=N/A speed=4.18x    frame=31516 fps=100 q=-0.0 size=N/A time=00:21:54.47 bitrate=N/A speed=4.18x    frame=31557 fps=100 q=-0.0 size=N/A time=00:21:56.18 bitrate=N/A speed=4.18x    frame=31619 fps=100 q=-0.0 size=N/A time=00:21:58.77 bitrate=N/A speed=4.18x    frame=31670 fps=100 q=-0.0 size=N/A time=00:22:00.90 bitrate=N/A speed=4.18x    frame=31723 fps=100 q=-0.0 size=N/A time=00:22:03.11 bitrate=N/A speed=4.18x    frame=31774 fps=100 q=-0.0 size=N/A time=00:22:05.24 bitrate=N/A speed=4.18x    frame=31816 fps=100 q=-0.0 size=N/A time=00:22:06.99 bitrate=N/A speed=4.18x    frame=31877 fps=100 q=-0.0 size=N/A time=00:22:09.53 bitrate=N/A speed=4.18x    frame=31926 fps=100 q=-0.0 size=N/A time=00:22:11.58 bitrate=N/A speed=4.18x    frame=31962 fps=100 q=-0.0 size=N/A time=00:22:13.08 bitrate=N/A speed=4.17x    frame=32024 fps=100 q=-0.0 size=N/A time=00:22:15.66 bitrate=N/A speed=4.18x    frame=32083 fps=100 q=-0.0 size=N/A time=00:22:18.12 bitrate=N/A speed=4.18x    frame=32131 fps=100 q=-0.0 size=N/A time=00:22:20.13 bitrate=N/A speed=4.18x    frame=32187 fps=100 q=-0.0 size=N/A time=00:22:22.46 bitrate=N/A speed=4.18x    frame=32234 fps=100 q=-0.0 size=N/A time=00:22:24.42 bitrate=N/A speed=4.18x    frame=32291 fps=100 q=-0.0 size=N/A time=00:22:26.80 bitrate=N/A speed=4.18x    frame=32342 fps=100 q=-0.0 size=N/A time=00:22:28.93 bitrate=N/A speed=4.18x    frame=32378 fps=100 q=-0.0 size=N/A time=00:22:30.43 bitrate=N/A speed=4.18x    frame=32445 fps=100 q=-0.0 size=N/A time=00:22:33.22 bitrate=N/A speed=4.18x    frame=32495 fps=100 q=-0.0 size=N/A time=00:22:35.31 bitrate=N/A speed=4.18x    frame=32548 fps=100 q=-0.0 size=N/A time=00:22:37.52 bitrate=N/A speed=4.18x    frame=32592 fps=100 q=-0.0 size=N/A time=00:22:39.35 bitrate=N/A speed=4.18x    frame=32651 fps=100 q=-0.0 size=N/A time=00:22:41.81 bitrate=N/A speed=4.18x    frame=32702 fps=100 q=-0.0 size=N/A time=00:22:43.94 bitrate=N/A speed=4.18x    frame=32755 fps=100 q=-0.0 size=N/A time=00:22:46.15 bitrate=N/A speed=4.18x    frame=32803 fps=100 q=-0.0 size=N/A time=00:22:48.15 bitrate=N/A speed=4.18x    frame=32859 fps=100 q=-0.0 size=N/A time=00:22:50.49 bitrate=N/A speed=4.18x    frame=32911 fps=100 q=-0.0 size=N/A time=00:22:52.66 bitrate=N/A speed=4.18x    frame=32953 fps=100 q=-0.0 size=N/A time=00:22:54.41 bitrate=N/A speed=4.18x    frame=33013 fps=100 q=-0.0 size=N/A time=00:22:56.91 bitrate=N/A speed=4.18x    frame=33062 fps=100 q=-0.0 size=N/A time=00:22:58.96 bitrate=N/A speed=4.18x    frame=33107 fps=100 q=-0.0 size=N/A time=00:23:00.83 bitrate=N/A speed=4.18x    frame=33161 fps=100 q=-0.0 size=N/A time=00:23:03.09 bitrate=N/A speed=4.18x    frame=33206 fps=100 q=-0.0 size=N/A time=00:23:04.96 bitrate=N/A speed=4.18x    frame=33266 fps=100 q=-0.0 size=N/A time=00:23:07.46 bitrate=N/A speed=4.18x    frame=33318 fps=100 q=-0.0 size=N/A time=00:23:09.63 bitrate=N/A speed=4.18x    frame=33367 fps=100 q=-0.0 size=N/A time=00:23:11.68 bitrate=N/A speed=4.18x    frame=33422 fps=100 q=-0.0 size=N/A time=00:23:13.97 bitrate=N/A speed=4.18x    frame=33474 fps=100 q=-0.0 size=N/A time=00:23:16.14 bitrate=N/A speed=4.18x    frame=33526 fps=100 q=-0.0 size=N/A time=00:23:18.31 bitrate=N/A speed=4.18x    frame=33564 fps=100 q=-0.0 size=N/A time=00:23:19.89 bitrate=N/A speed=4.18x    frame=33628 fps=100 q=-0.0 size=N/A time=00:23:22.56 bitrate=N/A speed=4.18x    frame=33679 fps=100 q=-0.0 size=N/A time=00:23:24.69 bitrate=N/A speed=4.18x    frame=33732 fps=100 q=-0.0 size=N/A time=00:23:26.90 bitrate=N/A speed=4.18x    frame=33776 fps=100 q=-0.0 size=N/A time=00:23:28.74 bitrate=N/A speed=4.18x    frame=33834 fps=100 q=-0.0 size=N/A time=00:23:31.15 bitrate=N/A speed=4.18x    frame=33878 fps=100 q=-0.0 size=N/A time=00:23:32.99 bitrate=N/A speed=4.18x    frame=33937 fps=100 q=-0.0 size=N/A time=00:23:35.45 bitrate=N/A speed=4.18x    frame=33981 fps=100 q=-0.0 size=N/A time=00:23:37.29 bitrate=N/A speed=4.18x    frame=34040 fps=100 q=-0.0 size=N/A time=00:23:39.75 bitrate=N/A speed=4.18x    frame=34092 fps=100 q=-0.0 size=N/A time=00:23:41.92 bitrate=N/A speed=4.18x    frame=34143 fps=100 q=-0.0 size=N/A time=00:23:44.04 bitrate=N/A speed=4.18x    frame=34195 fps=100 q=-0.0 size=N/A time=00:23:46.21 bitrate=N/A speed=4.18x    frame=34239 fps=100 q=-0.0 size=N/A time=00:23:48.05 bitrate=N/A speed=4.18x    frame=34297 fps=100 q=-0.0 size=N/A time=00:23:50.47 bitrate=N/A speed=4.18x    frame=34350 fps=100 q=-0.0 size=N/A time=00:23:52.68 bitrate=N/A speed=4.18x    frame=34387 fps=100 q=-0.0 size=N/A time=00:23:54.22 bitrate=N/A speed=4.17x    frame=34446 fps=100 q=-0.0 size=N/A time=00:23:56.68 bitrate=N/A speed=4.18x    frame=34504 fps=100 q=-0.0 size=N/A time=00:23:59.10 bitrate=N/A speed=4.18x    frame=34547 fps=100 q=-0.0 size=N/A time=00:24:00.89 bitrate=N/A speed=4.18x    frame=34606 fps=100 q=-0.0 size=N/A time=00:24:03.35 bitrate=N/A speed=4.18x    frame=34651 fps=100 q=-0.0 size=N/A time=00:24:05.23 bitrate=N/A speed=4.18x    frame=34710 fps=100 q=-0.0 size=N/A time=00:24:07.69 bitrate=N/A speed=4.18x    frame=34754 fps=100 q=-0.0 size=N/A time=00:24:09.53 bitrate=N/A speed=4.18x    frame=34799 fps=100 q=-0.0 size=N/A time=00:24:11.40 bitrate=N/A speed=4.17x    frame=34865 fps=100 q=-0.0 size=N/A time=00:24:14.16 bitrate=N/A speed=4.18x    frame=34917 fps=100 q=-0.0 size=N/A time=00:24:16.32 bitrate=N/A speed=4.18x    frame=34966 fps=100 q=-0.0 size=N/A time=00:24:18.37 bitrate=N/A speed=4.18x    frame=35021 fps=100 q=-0.0 size=N/A time=00:24:20.66 bitrate=N/A speed=4.18x    frame=35072 fps=100 q=-0.0 size=N/A time=00:24:22.79 bitrate=N/A speed=4.18x    frame=35114 fps=100 q=-0.0 size=N/A time=00:24:24.54 bitrate=N/A speed=4.18x    frame=35176 fps=100 q=-0.0 size=N/A time=00:24:27.13 bitrate=N/A speed=4.18x    frame=35227 fps=100 q=-0.0 size=N/A time=00:24:29.25 bitrate=N/A speed=4.18x    frame=35278 fps=100 q=-0.0 size=N/A time=00:24:31.38 bitrate=N/A speed=4.18x    frame=35321 fps=100 q=-0.0 size=N/A time=00:24:33.18 bitrate=N/A speed=4.18x    frame=35380 fps=100 q=-0.0 size=N/A time=00:24:35.64 bitrate=N/A speed=4.18x    frame=35425 fps=100 q=-0.0 size=N/A time=00:24:37.51 bitrate=N/A speed=4.18x    frame=35483 fps=100 q=-0.0 size=N/A time=00:24:39.93 bitrate=N/A speed=4.18x    frame=35525 fps=100 q=-0.0 size=N/A time=00:24:41.68 bitrate=N/A speed=4.17x    [Parsed_psnr_10 @ 000001f7b181cac0] PSNR y:48.390469 u:52.820036 v:51.877177 average:49.351734 min:40.229628 max:inf
[out#0/null @ 000001f7b0f28ec0] video:15281KiB audio:278116KiB subtitle:0KiB other streams:0KiB global headers:0KiB muxing overhead: unknown
frame=35562 fps=100 q=-0.0 Lsize=N/A time=00:24:43.23 bitrate=N/A speed=4.18x    
